<?xml version="1.0" encoding="UTF-8" standalone="no"?>
<!DOCTYPE svg PUBLIC "-//W3C//DTD SVG 1.1//EN"
 "http://www.w3.org/Graphics/SVG/1.1/DTD/svg11.dtd">
<!-- Generated by graphviz version 12.2.1 (0)
 -->
<!-- Pages: 1 -->
<svg width="3600pt" height="4374pt"
 viewBox="0.00 0.00 864.00 1049.72" xmlns="http://www.w3.org/2000/svg" xmlns:xlink="http://www.w3.org/1999/xlink">
<g id="graph0" class="graph" transform="scale(2.42485 2.42485) rotate(0) translate(4 1799.75)">
<polygon fill="white" stroke="none" points="-4,4 -4,-1799.75 1480.62,-1799.75 1480.62,4 -4,4"/>
<!-- start -->
<g id="node1" class="node">
<title>start</title>
<path fill="#e3f2fd" stroke="black" d="M293,-1282.38C293,-1282.38 223,-1282.38 223,-1282.38 217,-1282.38 211,-1276.38 211,-1270.38 211,-1270.38 211,-1250.38 211,-1250.38 211,-1244.38 217,-1238.38 223,-1238.38 223,-1238.38 293,-1238.38 293,-1238.38 299,-1238.38 305,-1244.38 305,-1250.38 305,-1250.38 305,-1270.38 305,-1270.38 305,-1276.38 299,-1282.38 293,-1282.38"/>
<text text-anchor="middle" x="258" y="-1265.08" font-family="Arial" font-size="14.00">系统启动</text>
<text text-anchor="middle" x="258" y="-1244.83" font-family="Arial" font-size="14.00">System Start</text>
</g>
<!-- hw_init -->
<g id="node2" class="node">
<title>hw_init</title>
<path fill="#e3f2fd" stroke="black" d="M301.25,-1151.75C301.25,-1151.75 214.75,-1151.75 214.75,-1151.75 208.75,-1151.75 202.75,-1145.75 202.75,-1139.75 202.75,-1139.75 202.75,-1059 202.75,-1059 202.75,-1053 208.75,-1047 214.75,-1047 214.75,-1047 301.25,-1047 301.25,-1047 307.25,-1047 313.25,-1053 313.25,-1059 313.25,-1059 313.25,-1139.75 313.25,-1139.75 313.25,-1145.75 307.25,-1151.75 301.25,-1151.75"/>
<text text-anchor="middle" x="258" y="-1134.45" font-family="Arial" font-size="14.00">硬件初始化</text>
<text text-anchor="middle" x="258" y="-1114.2" font-family="Arial" font-size="14.00">Hardware Init</text>
<text text-anchor="middle" x="258" y="-1098.45" font-family="Arial" font-size="14.00">• 显示器</text>
<text text-anchor="middle" x="258" y="-1078.2" font-family="Arial" font-size="14.00">• 音频编解码器</text>
<text text-anchor="middle" x="258" y="-1057.95" font-family="Arial" font-size="14.00">• 网络模块</text>
</g>
<!-- start&#45;&gt;hw_init -->
<g id="edge1" class="edge">
<title>start&#45;&gt;hw_init</title>
<path fill="none" stroke="black" d="M258,-1237.93C258,-1218.88 258,-1190.05 258,-1163.7"/>
<polygon fill="black" stroke="black" points="261.5,-1163.71 258,-1153.71 254.5,-1163.71 261.5,-1163.71"/>
<text text-anchor="middle" x="272.25" y="-1176.7" font-family="Arial" font-size="14.00">启动</text>
</g>
<!-- network_init -->
<g id="node3" class="node">
<title>network_init</title>
<path fill="#e3f2fd" stroke="black" d="M347.75,-980.62C347.75,-980.62 168.25,-980.62 168.25,-980.62 162.25,-980.62 156.25,-974.62 156.25,-968.62 156.25,-968.62 156.25,-908.12 156.25,-908.12 156.25,-902.12 162.25,-896.12 168.25,-896.12 168.25,-896.12 347.75,-896.12 347.75,-896.12 353.75,-896.12 359.75,-902.12 359.75,-908.12 359.75,-908.12 359.75,-968.62 359.75,-968.62 359.75,-974.62 353.75,-980.62 347.75,-980.62"/>
<text text-anchor="middle" x="258" y="-963.33" font-family="Arial" font-size="14.00">网络连接</text>
<text text-anchor="middle" x="258" y="-943.08" font-family="Arial" font-size="14.00">Network Connection</text>
<text text-anchor="middle" x="258" y="-927.33" font-family="Arial" font-size="14.00">• WiFi连接</text>
<text text-anchor="middle" x="258" y="-907.08" font-family="Arial" font-size="14.00">• 协议选择(MQTT/WebSocket)</text>
</g>
<!-- hw_init&#45;&gt;network_init -->
<g id="edge2" class="edge">
<title>hw_init&#45;&gt;network_init</title>
<path fill="none" stroke="black" d="M258,-1046.75C258,-1029.36 258,-1009.92 258,-992.41"/>
<polygon fill="black" stroke="black" points="261.5,-992.46 258,-982.46 254.5,-992.46 261.5,-992.46"/>
<text text-anchor="middle" x="286.5" y="-1015.7" font-family="Arial" font-size="14.00">硬件就绪</text>
</g>
<!-- protocol_init -->
<g id="node4" class="node">
<title>protocol_init</title>
<path fill="#e3f2fd" stroke="black" d="M301.25,-809.5C301.25,-809.5 214.75,-809.5 214.75,-809.5 208.75,-809.5 202.75,-803.5 202.75,-797.5 202.75,-797.5 202.75,-737 202.75,-737 202.75,-731 208.75,-725 214.75,-725 214.75,-725 301.25,-725 301.25,-725 307.25,-725 313.25,-731 313.25,-737 313.25,-737 313.25,-797.5 313.25,-797.5 313.25,-803.5 307.25,-809.5 301.25,-809.5"/>
<text text-anchor="middle" x="258" y="-792.2" font-family="Arial" font-size="14.00">协议初始化</text>
<text text-anchor="middle" x="258" y="-771.95" font-family="Arial" font-size="14.00">Protocol Init</text>
<text text-anchor="middle" x="258" y="-756.2" font-family="Arial" font-size="14.00">• 设置回调函数</text>
<text text-anchor="middle" x="258" y="-735.95" font-family="Arial" font-size="14.00">• 启动服务</text>
</g>
<!-- network_init&#45;&gt;protocol_init -->
<g id="edge3" class="edge">
<title>network_init&#45;&gt;protocol_init</title>
<path fill="none" stroke="black" d="M258,-896C258,-873.48 258,-845.37 258,-821.26"/>
<polygon fill="black" stroke="black" points="261.5,-821.3 258,-811.3 254.5,-821.3 261.5,-821.3"/>
<text text-anchor="middle" x="286.5" y="-854.7" font-family="Arial" font-size="14.00">网络连接</text>
</g>
<!-- idle -->
<g id="node5" class="node">
<title>idle</title>
<path fill="#f3e5f5" stroke="black" d="M565.38,-648.5C565.38,-648.5 464.62,-648.5 464.62,-648.5 458.62,-648.5 452.62,-642.5 452.62,-636.5 452.62,-636.5 452.62,-555.75 452.62,-555.75 452.62,-549.75 458.62,-543.75 464.62,-543.75 464.62,-543.75 565.38,-543.75 565.38,-543.75 571.38,-543.75 577.38,-549.75 577.38,-555.75 577.38,-555.75 577.38,-636.5 577.38,-636.5 577.38,-642.5 571.38,-648.5 565.38,-648.5"/>
<text text-anchor="middle" x="515" y="-631.2" font-family="Arial" font-size="14.00">待机状态</text>
<text text-anchor="middle" x="515" y="-610.95" font-family="Arial" font-size="14.00">Idle State</text>
<text text-anchor="middle" x="515" y="-595.2" font-family="Arial" font-size="14.00">• 唤醒词检测开启</text>
<text text-anchor="middle" x="515" y="-574.95" font-family="Arial" font-size="14.00">• 音频处理停止</text>
<text text-anchor="middle" x="515" y="-554.7" font-family="Arial" font-size="14.00">• 显示待机界面</text>
</g>
<!-- protocol_init&#45;&gt;idle -->
<g id="edge4" class="edge">
<title>protocol_init&#45;&gt;idle</title>
<path fill="none" stroke="black" d="M313.52,-732.63C336.17,-718.69 362.5,-702.2 386,-686.75 404.62,-674.51 424.49,-660.96 442.92,-648.17"/>
<polygon fill="black" stroke="black" points="444.67,-651.22 450.88,-642.63 440.68,-645.47 444.67,-651.22"/>
<text text-anchor="middle" x="450.23" y="-673.45" font-family="Arial" font-size="14.00">初始化完成</text>
</g>
<!-- main_loop -->
<g id="node19" class="node">
<title>main_loop</title>
<path fill="#f5f5f5" stroke="black" d="M106,-648.5C106,-648.5 12,-648.5 12,-648.5 6,-648.5 0,-642.5 0,-636.5 0,-636.5 0,-555.75 0,-555.75 0,-549.75 6,-543.75 12,-543.75 12,-543.75 106,-543.75 106,-543.75 112,-543.75 118,-549.75 118,-555.75 118,-555.75 118,-636.5 118,-636.5 118,-642.5 112,-648.5 106,-648.5"/>
<text text-anchor="middle" x="59" y="-631.2" font-family="Arial" font-size="14.00">主事件循环</text>
<text text-anchor="middle" x="59" y="-610.95" font-family="Arial" font-size="14.00">Main Event Loop</text>
<text text-anchor="middle" x="59" y="-595.2" font-family="Arial" font-size="14.00">• 任务调度</text>
<text text-anchor="middle" x="59" y="-574.95" font-family="Arial" font-size="14.00">• 音频发送</text>
<text text-anchor="middle" x="59" y="-554.7" font-family="Arial" font-size="14.00">• 优先级管理</text>
</g>
<!-- protocol_init&#45;&gt;main_loop -->
<g id="edge19" class="edge">
<title>protocol_init&#45;&gt;main_loop</title>
<path fill="none" stroke="black" stroke-dasharray="5,2" d="M202.48,-741.26C175.9,-727.58 144.71,-708.9 120.75,-686.75 111.52,-678.22 102.92,-668.07 95.24,-657.72"/>
<polygon fill="black" stroke="black" points="98.28,-655.95 89.62,-649.84 92.58,-660.01 98.28,-655.95"/>
<text text-anchor="middle" x="156.38" y="-673.45" font-family="Arial" font-size="14.00">启动主循环</text>
</g>
<!-- audio_loop -->
<g id="node20" class="node">
<title>audio_loop</title>
<path fill="#f5f5f5" stroke="black" d="M234.25,-648.5C234.25,-648.5 147.75,-648.5 147.75,-648.5 141.75,-648.5 135.75,-642.5 135.75,-636.5 135.75,-636.5 135.75,-555.75 135.75,-555.75 135.75,-549.75 141.75,-543.75 147.75,-543.75 147.75,-543.75 234.25,-543.75 234.25,-543.75 240.25,-543.75 246.25,-549.75 246.25,-555.75 246.25,-555.75 246.25,-636.5 246.25,-636.5 246.25,-642.5 240.25,-648.5 234.25,-648.5"/>
<text text-anchor="middle" x="191" y="-631.2" font-family="Arial" font-size="14.00">音频循环</text>
<text text-anchor="middle" x="191" y="-610.95" font-family="Arial" font-size="14.00">Audio Loop</text>
<text text-anchor="middle" x="191" y="-595.2" font-family="Arial" font-size="14.00">• 音频输入输出</text>
<text text-anchor="middle" x="191" y="-574.95" font-family="Arial" font-size="14.00">• 实时处理</text>
<text text-anchor="middle" x="191" y="-554.7" font-family="Arial" font-size="14.00">• 独立任务</text>
</g>
<!-- protocol_init&#45;&gt;audio_loop -->
<g id="edge20" class="edge">
<title>protocol_init&#45;&gt;audio_loop</title>
<path fill="none" stroke="black" stroke-dasharray="5,2" d="M222.67,-724.79C214.45,-713.15 206.61,-700.03 201.5,-686.75 198.26,-678.33 195.95,-669.16 194.31,-660.01"/>
<polygon fill="black" stroke="black" points="197.81,-659.77 192.85,-650.4 190.89,-660.81 197.81,-659.77"/>
<text text-anchor="middle" x="244.25" y="-673.45" font-family="Arial" font-size="14.00">启动音频循环</text>
</g>
<!-- background_task -->
<g id="node21" class="node">
<title>background_task</title>
<path fill="#f5f5f5" stroke="black" d="M371.75,-648.5C371.75,-648.5 276.25,-648.5 276.25,-648.5 270.25,-648.5 264.25,-642.5 264.25,-636.5 264.25,-636.5 264.25,-555.75 264.25,-555.75 264.25,-549.75 270.25,-543.75 276.25,-543.75 276.25,-543.75 371.75,-543.75 371.75,-543.75 377.75,-543.75 383.75,-549.75 383.75,-555.75 383.75,-555.75 383.75,-636.5 383.75,-636.5 383.75,-642.5 377.75,-648.5 371.75,-648.5"/>
<text text-anchor="middle" x="324" y="-631.2" font-family="Arial" font-size="14.00">后台任务</text>
<text text-anchor="middle" x="324" y="-610.95" font-family="Arial" font-size="14.00">Background Task</text>
<text text-anchor="middle" x="324" y="-595.2" font-family="Arial" font-size="14.00">• 编解码处理</text>
<text text-anchor="middle" x="324" y="-574.95" font-family="Arial" font-size="14.00">• 网络通信</text>
<text text-anchor="middle" x="324" y="-554.7" font-family="Arial" font-size="14.00">• 异步执行</text>
</g>
<!-- protocol_init&#45;&gt;background_task -->
<g id="edge21" class="edge">
<title>protocol_init&#45;&gt;background_task</title>
<path fill="none" stroke="black" stroke-dasharray="5,2" d="M274.15,-724.88C281.82,-705.21 291.16,-681.29 299.67,-659.48"/>
<polygon fill="black" stroke="black" points="302.84,-660.97 303.22,-650.39 296.32,-658.43 302.84,-660.97"/>
<text text-anchor="middle" x="339.66" y="-673.45" font-family="Arial" font-size="14.00">启动后台任务</text>
</g>
<!-- connecting -->
<g id="node6" class="node">
<title>connecting</title>
<path fill="#e8f5e8" stroke="black" d="M1055.38,-457.12C1055.38,-457.12 954.62,-457.12 954.62,-457.12 948.62,-457.12 942.62,-451.12 942.62,-445.12 942.62,-445.12 942.62,-384.62 942.62,-384.62 942.62,-378.62 948.62,-372.62 954.62,-372.62 954.62,-372.62 1055.38,-372.62 1055.38,-372.62 1061.38,-372.62 1067.38,-378.62 1067.38,-384.62 1067.38,-384.62 1067.38,-445.12 1067.38,-445.12 1067.38,-451.12 1061.38,-457.12 1055.38,-457.12"/>
<text text-anchor="middle" x="1005" y="-439.82" font-family="Arial" font-size="14.00">连接中</text>
<text text-anchor="middle" x="1005" y="-419.57" font-family="Arial" font-size="14.00">Connecting</text>
<text text-anchor="middle" x="1005" y="-403.82" font-family="Arial" font-size="14.00">• 建立音频通道</text>
<text text-anchor="middle" x="1005" y="-383.57" font-family="Arial" font-size="14.00">• 清除时间戳队列</text>
</g>
<!-- idle&#45;&gt;connecting -->
<g id="edge5" class="edge">
<title>idle&#45;&gt;connecting</title>
<path fill="none" stroke="black" d="M577.77,-548.29C580.83,-546.66 583.92,-545.13 587,-543.75 727.15,-480.91 782.19,-526.24 924,-467.25 927.38,-465.84 930.78,-464.3 934.17,-462.65"/>
<polygon fill="black" stroke="black" points="935.65,-465.82 942.93,-458.12 932.44,-459.6 935.65,-465.82"/>
<text text-anchor="middle" x="904.7" y="-512.45" font-family="Arial" font-size="14.00">唤醒词检测</text>
<text text-anchor="middle" x="904.7" y="-492.2" font-family="Arial" font-size="14.00">或按键触发</text>
</g>
<!-- listening -->
<g id="node7" class="node">
<title>listening</title>
<path fill="#e8f5e8" stroke="black" d="M1048.25,-286C1048.25,-286 961.75,-286 961.75,-286 955.75,-286 949.75,-280 949.75,-274 949.75,-274 949.75,-193.25 949.75,-193.25 949.75,-187.25 955.75,-181.25 961.75,-181.25 961.75,-181.25 1048.25,-181.25 1048.25,-181.25 1054.25,-181.25 1060.25,-187.25 1060.25,-193.25 1060.25,-193.25 1060.25,-274 1060.25,-274 1060.25,-280 1054.25,-286 1048.25,-286"/>
<text text-anchor="middle" x="1005" y="-268.7" font-family="Arial" font-size="14.00">监听状态</text>
<text text-anchor="middle" x="1005" y="-248.45" font-family="Arial" font-size="14.00">Listening</text>
<text text-anchor="middle" x="1005" y="-232.7" font-family="Arial" font-size="14.00">• 音频处理开启</text>
<text text-anchor="middle" x="1005" y="-212.45" font-family="Arial" font-size="14.00">• 语音活动检测</text>
<text text-anchor="middle" x="1005" y="-192.2" font-family="Arial" font-size="14.00">• 实时编码发送</text>
</g>
<!-- connecting&#45;&gt;listening -->
<g id="edge6" class="edge">
<title>connecting&#45;&gt;listening</title>
<path fill="none" stroke="black" d="M1005,-372.3C1005,-350.16 1005,-322.46 1005,-297.73"/>
<polygon fill="black" stroke="black" points="1008.5,-297.74 1005,-287.74 1001.5,-297.74 1008.5,-297.74"/>
<text text-anchor="middle" x="1047.75" y="-321.07" font-family="Arial" font-size="14.00">音频通道建立</text>
</g>
<!-- speaking -->
<g id="node8" class="node">
<title>speaking</title>
<path fill="#e8f5e8" stroke="black" d="M939.5,-104.75C939.5,-104.75 824.5,-104.75 824.5,-104.75 818.5,-104.75 812.5,-98.75 812.5,-92.75 812.5,-92.75 812.5,-12 812.5,-12 812.5,-6 818.5,0 824.5,0 824.5,0 939.5,0 939.5,0 945.5,0 951.5,-6 951.5,-12 951.5,-12 951.5,-92.75 951.5,-92.75 951.5,-98.75 945.5,-104.75 939.5,-104.75"/>
<text text-anchor="middle" x="882" y="-87.45" font-family="Arial" font-size="14.00">播放状态</text>
<text text-anchor="middle" x="882" y="-67.2" font-family="Arial" font-size="14.00">Speaking</text>
<text text-anchor="middle" x="882" y="-51.45" font-family="Arial" font-size="14.00">• 音频解码播放</text>
<text text-anchor="middle" x="882" y="-31.2" font-family="Arial" font-size="14.00">• 显示助手消息</text>
<text text-anchor="middle" x="882" y="-10.95" font-family="Arial" font-size="14.00">• 根据模式决定后续</text>
</g>
<!-- listening&#45;&gt;speaking -->
<g id="edge7" class="edge">
<title>listening&#45;&gt;speaking</title>
<path fill="none" stroke="black" d="M949.36,-207.25C931.08,-196.24 912.42,-181.61 900.5,-163.25 891.51,-149.41 886.46,-132.59 883.72,-116.32"/>
<polygon fill="black" stroke="black" points="887.23,-116.1 882.38,-106.68 880.29,-117.06 887.23,-116.1"/>
<text text-anchor="middle" x="941.75" y="-139.82" font-family="Arial" font-size="14.00">收到TTS开始</text>
</g>
<!-- speaking&#45;&gt;idle -->
<g id="edge8" class="edge">
<title>speaking&#45;&gt;idle</title>
<path fill="none" stroke="black" d="M847.11,-104.88C779.08,-205.3 629.04,-426.79 556.23,-534.26"/>
<polygon fill="black" stroke="black" points="553.42,-532.17 550.71,-542.42 559.21,-536.1 553.42,-532.17"/>
<text text-anchor="middle" x="758.44" y="-331.2" font-family="Arial" font-size="14.00">播放完成</text>
<text text-anchor="middle" x="758.44" y="-310.95" font-family="Arial" font-size="14.00">(手动停止模式)</text>
</g>
<!-- speaking&#45;&gt;listening -->
<g id="edge9" class="edge">
<title>speaking&#45;&gt;listening</title>
<path fill="none" stroke="black" d="M951.74,-90.54C963.69,-99.66 974.86,-110.41 983,-122.75 992.14,-136.6 997.63,-153.43 1000.89,-169.7"/>
<polygon fill="black" stroke="black" points="997.41,-170.08 1002.55,-179.34 1004.3,-168.89 997.41,-170.08"/>
<text text-anchor="middle" x="1032.15" y="-149.95" font-family="Arial" font-size="14.00">播放完成</text>
<text text-anchor="middle" x="1032.15" y="-129.7" font-family="Arial" font-size="14.00">(实时模式)</text>
</g>
<!-- audio_input -->
<g id="node9" class="node">
<title>audio_input</title>
<path fill="#e0f2f1" stroke="black" d="M510.5,-1795.75C510.5,-1795.75 419.5,-1795.75 419.5,-1795.75 413.5,-1795.75 407.5,-1789.75 407.5,-1783.75 407.5,-1783.75 407.5,-1703 407.5,-1703 407.5,-1697 413.5,-1691 419.5,-1691 419.5,-1691 510.5,-1691 510.5,-1691 516.5,-1691 522.5,-1697 522.5,-1703 522.5,-1703 522.5,-1783.75 522.5,-1783.75 522.5,-1789.75 516.5,-1795.75 510.5,-1795.75"/>
<text text-anchor="middle" x="465" y="-1778.45" font-family="Arial" font-size="14.00">音频输入</text>
<text text-anchor="middle" x="465" y="-1758.2" font-family="Arial" font-size="14.00">Audio Input</text>
<text text-anchor="middle" x="465" y="-1742.45" font-family="Arial" font-size="14.00">• 麦克风采集</text>
<text text-anchor="middle" x="465" y="-1722.2" font-family="Arial" font-size="14.00">• 重采样(16kHz)</text>
<text text-anchor="middle" x="465" y="-1701.95" font-family="Arial" font-size="14.00">• 双声道处理</text>
</g>
<!-- audio_process -->
<g id="node10" class="node">
<title>audio_process</title>
<path fill="#e0f2f1" stroke="black" d="M513.5,-1634.75C513.5,-1634.75 416.5,-1634.75 416.5,-1634.75 410.5,-1634.75 404.5,-1628.75 404.5,-1622.75 404.5,-1622.75 404.5,-1542 404.5,-1542 404.5,-1536 410.5,-1530 416.5,-1530 416.5,-1530 513.5,-1530 513.5,-1530 519.5,-1530 525.5,-1536 525.5,-1542 525.5,-1542 525.5,-1622.75 525.5,-1622.75 525.5,-1628.75 519.5,-1634.75 513.5,-1634.75"/>
<text text-anchor="middle" x="465" y="-1617.45" font-family="Arial" font-size="14.00">音频处理</text>
<text text-anchor="middle" x="465" y="-1597.2" font-family="Arial" font-size="14.00">Audio Processing</text>
<text text-anchor="middle" x="465" y="-1581.45" font-family="Arial" font-size="14.00">• VAD检测</text>
<text text-anchor="middle" x="465" y="-1561.2" font-family="Arial" font-size="14.00">• AEC处理</text>
<text text-anchor="middle" x="465" y="-1540.95" font-family="Arial" font-size="14.00">• 噪声抑制</text>
</g>
<!-- audio_input&#45;&gt;audio_process -->
<g id="edge10" class="edge">
<title>audio_input&#45;&gt;audio_process</title>
<path fill="none" stroke="black" d="M465,-1690.75C465,-1676.52 465,-1660.92 465,-1646.13"/>
<polygon fill="black" stroke="black" points="468.5,-1646.52 465,-1636.52 461.5,-1646.52 468.5,-1646.52"/>
<text text-anchor="middle" x="493.5" y="-1659.7" font-family="Arial" font-size="14.00">原始音频</text>
</g>
<!-- opus_encode -->
<g id="node11" class="node">
<title>opus_encode</title>
<path fill="#e0f2f1" stroke="black" d="M536.5,-1312.75C536.5,-1312.75 451.5,-1312.75 451.5,-1312.75 445.5,-1312.75 439.5,-1306.75 439.5,-1300.75 439.5,-1300.75 439.5,-1220 439.5,-1220 439.5,-1214 445.5,-1208 451.5,-1208 451.5,-1208 536.5,-1208 536.5,-1208 542.5,-1208 548.5,-1214 548.5,-1220 548.5,-1220 548.5,-1300.75 548.5,-1300.75 548.5,-1306.75 542.5,-1312.75 536.5,-1312.75"/>
<text text-anchor="middle" x="494" y="-1295.45" font-family="Arial" font-size="14.00">Opus编码</text>
<text text-anchor="middle" x="494" y="-1275.2" font-family="Arial" font-size="14.00">Opus Encoding</text>
<text text-anchor="middle" x="494" y="-1259.45" font-family="Arial" font-size="14.00">• 音频压缩</text>
<text text-anchor="middle" x="494" y="-1239.2" font-family="Arial" font-size="14.00">• 数据包生成</text>
<text text-anchor="middle" x="494" y="-1218.95" font-family="Arial" font-size="14.00">• 队列管理</text>
</g>
<!-- audio_process&#45;&gt;opus_encode -->
<g id="edge11" class="edge">
<title>audio_process&#45;&gt;opus_encode</title>
<path fill="none" stroke="black" d="M457.6,-1529.51C452.77,-1486.29 448.86,-1423.25 457.75,-1369 460.19,-1354.12 464.41,-1338.52 469.12,-1323.96"/>
<polygon fill="black" stroke="black" points="472.44,-1325.09 472.32,-1314.49 465.81,-1322.85 472.44,-1325.09"/>
<text text-anchor="middle" x="493.38" y="-1418.2" font-family="Arial" font-size="14.00">处理后音频</text>
</g>
<!-- aec_process -->
<g id="node28" class="node">
<title>aec_process</title>
<path fill="#e0f2f1" stroke="black" d="M640.12,-1473.75C640.12,-1473.75 549.88,-1473.75 549.88,-1473.75 543.88,-1473.75 537.88,-1467.75 537.88,-1461.75 537.88,-1461.75 537.88,-1381 537.88,-1381 537.88,-1375 543.88,-1369 549.88,-1369 549.88,-1369 640.12,-1369 640.12,-1369 646.12,-1369 652.12,-1375 652.12,-1381 652.12,-1381 652.12,-1461.75 652.12,-1461.75 652.12,-1467.75 646.12,-1473.75 640.12,-1473.75"/>
<text text-anchor="middle" x="595" y="-1456.45" font-family="Arial" font-size="14.00">AEC处理</text>
<text text-anchor="middle" x="595" y="-1436.2" font-family="Arial" font-size="14.00">AEC Processing</text>
<text text-anchor="middle" x="595" y="-1420.45" font-family="Arial" font-size="14.00">• 设备端AEC</text>
<text text-anchor="middle" x="595" y="-1400.2" font-family="Arial" font-size="14.00">• 服务端AEC</text>
<text text-anchor="middle" x="595" y="-1379.95" font-family="Arial" font-size="14.00">• 回声消除关闭</text>
</g>
<!-- audio_process&#45;&gt;aec_process -->
<g id="edge30" class="edge">
<title>audio_process&#45;&gt;aec_process</title>
<path fill="none" stroke="black" d="M507.21,-1529.75C519.53,-1514.68 533.11,-1498.08 545.82,-1482.53"/>
<polygon fill="black" stroke="black" points="548.2,-1485.14 551.82,-1475.18 542.78,-1480.71 548.2,-1485.14"/>
<text text-anchor="middle" x="566.28" y="-1498.7" font-family="Arial" font-size="14.00">回声消除</text>
</g>
<!-- send_audio -->
<g id="node13" class="node">
<title>send_audio</title>
<path fill="#ffebee" stroke="black" d="M524.5,-1151.75C524.5,-1151.75 463.5,-1151.75 463.5,-1151.75 457.5,-1151.75 451.5,-1145.75 451.5,-1139.75 451.5,-1139.75 451.5,-1059 451.5,-1059 451.5,-1053 457.5,-1047 463.5,-1047 463.5,-1047 524.5,-1047 524.5,-1047 530.5,-1047 536.5,-1053 536.5,-1059 536.5,-1059 536.5,-1139.75 536.5,-1139.75 536.5,-1145.75 530.5,-1151.75 524.5,-1151.75"/>
<text text-anchor="middle" x="494" y="-1134.45" font-family="Arial" font-size="14.00">发送音频</text>
<text text-anchor="middle" x="494" y="-1114.2" font-family="Arial" font-size="14.00">Send Audio</text>
<text text-anchor="middle" x="494" y="-1098.45" font-family="Arial" font-size="14.00">• 网络传输</text>
<text text-anchor="middle" x="494" y="-1078.2" font-family="Arial" font-size="14.00">• 队列管理</text>
<text text-anchor="middle" x="494" y="-1057.95" font-family="Arial" font-size="14.00">• 错误处理</text>
</g>
<!-- opus_encode&#45;&gt;send_audio -->
<g id="edge12" class="edge">
<title>opus_encode&#45;&gt;send_audio</title>
<path fill="none" stroke="black" d="M494,-1207.75C494,-1193.52 494,-1177.92 494,-1163.13"/>
<polygon fill="black" stroke="black" points="497.5,-1163.52 494,-1153.52 490.5,-1163.52 497.5,-1163.52"/>
<text text-anchor="middle" x="522.5" y="-1176.7" font-family="Arial" font-size="14.00">编码数据</text>
</g>
<!-- audio_output -->
<g id="node12" class="node">
<title>audio_output</title>
<path fill="#e0f2f1" stroke="black" d="M690.12,-990.75C690.12,-990.75 617.88,-990.75 617.88,-990.75 611.88,-990.75 605.88,-984.75 605.88,-978.75 605.88,-978.75 605.88,-898 605.88,-898 605.88,-892 611.88,-886 617.88,-886 617.88,-886 690.12,-886 690.12,-886 696.12,-886 702.12,-892 702.12,-898 702.12,-898 702.12,-978.75 702.12,-978.75 702.12,-984.75 696.12,-990.75 690.12,-990.75"/>
<text text-anchor="middle" x="654" y="-973.45" font-family="Arial" font-size="14.00">音频输出</text>
<text text-anchor="middle" x="654" y="-953.2" font-family="Arial" font-size="14.00">Audio Output</text>
<text text-anchor="middle" x="654" y="-937.45" font-family="Arial" font-size="14.00">• Opus解码</text>
<text text-anchor="middle" x="654" y="-917.2" font-family="Arial" font-size="14.00">• 重采样</text>
<text text-anchor="middle" x="654" y="-896.95" font-family="Arial" font-size="14.00">• 扬声器播放</text>
</g>
<!-- error_handle -->
<g id="node26" class="node">
<title>error_handle</title>
<path fill="#ffcdd2" stroke="black" d="M554.5,-990.75C554.5,-990.75 475.5,-990.75 475.5,-990.75 469.5,-990.75 463.5,-984.75 463.5,-978.75 463.5,-978.75 463.5,-898 463.5,-898 463.5,-892 469.5,-886 475.5,-886 475.5,-886 554.5,-886 554.5,-886 560.5,-886 566.5,-892 566.5,-898 566.5,-898 566.5,-978.75 566.5,-978.75 566.5,-984.75 560.5,-990.75 554.5,-990.75"/>
<text text-anchor="middle" x="515" y="-973.45" font-family="Arial" font-size="14.00">错误处理</text>
<text text-anchor="middle" x="515" y="-953.2" font-family="Arial" font-size="14.00">Error Handling</text>
<text text-anchor="middle" x="515" y="-937.45" font-family="Arial" font-size="14.00">• 网络错误</text>
<text text-anchor="middle" x="515" y="-917.2" font-family="Arial" font-size="14.00">• 音频错误</text>
<text text-anchor="middle" x="515" y="-896.95" font-family="Arial" font-size="14.00">• 状态恢复</text>
</g>
<!-- send_audio&#45;&gt;error_handle -->
<g id="edge26" class="edge">
<title>send_audio&#45;&gt;error_handle</title>
<path fill="none" stroke="red" d="M492.21,-1046.53C492.43,-1034.1 493.21,-1020.91 495,-1008.75 495.32,-1006.56 495.69,-1004.35 496.11,-1002.12"/>
<polygon fill="red" stroke="red" points="499.51,-1002.93 498.17,-992.42 492.67,-1001.47 499.51,-1002.93"/>
<text text-anchor="middle" x="523.5" y="-1015.7" font-family="Arial" font-size="14.00">发送失败</text>
</g>
<!-- recv_audio -->
<g id="node14" class="node">
<title>recv_audio</title>
<path fill="#ffebee" stroke="black" d="M669.12,-1151.75C669.12,-1151.75 590.88,-1151.75 590.88,-1151.75 584.88,-1151.75 578.88,-1145.75 578.88,-1139.75 578.88,-1139.75 578.88,-1059 578.88,-1059 578.88,-1053 584.88,-1047 590.88,-1047 590.88,-1047 669.12,-1047 669.12,-1047 675.12,-1047 681.12,-1053 681.12,-1059 681.12,-1059 681.12,-1139.75 681.12,-1139.75 681.12,-1145.75 675.12,-1151.75 669.12,-1151.75"/>
<text text-anchor="middle" x="630" y="-1134.45" font-family="Arial" font-size="14.00">接收音频</text>
<text text-anchor="middle" x="630" y="-1114.2" font-family="Arial" font-size="14.00">Receive Audio</text>
<text text-anchor="middle" x="630" y="-1098.45" font-family="Arial" font-size="14.00">• 网络接收</text>
<text text-anchor="middle" x="630" y="-1078.2" font-family="Arial" font-size="14.00">• 队列缓冲</text>
<text text-anchor="middle" x="630" y="-1057.95" font-family="Arial" font-size="14.00">• 同步处理</text>
</g>
<!-- recv_audio&#45;&gt;audio_output -->
<g id="edge13" class="edge">
<title>recv_audio&#45;&gt;audio_output</title>
<path fill="none" stroke="black" d="M637.79,-1046.75C639.94,-1032.52 642.3,-1016.92 644.53,-1002.13"/>
<polygon fill="black" stroke="black" points="647.95,-1002.92 645.98,-992.51 641.03,-1001.87 647.95,-1002.92"/>
<text text-anchor="middle" x="671.94" y="-1015.7" font-family="Arial" font-size="14.00">网络音频</text>
</g>
<!-- recv_audio&#45;&gt;error_handle -->
<g id="edge27" class="edge">
<title>recv_audio&#45;&gt;error_handle</title>
<path fill="none" stroke="red" d="M592.66,-1046.75C581.86,-1031.82 569.98,-1015.38 558.82,-999.96"/>
<polygon fill="red" stroke="red" points="561.93,-998.29 553.23,-992.24 556.26,-1002.39 561.93,-998.29"/>
<text text-anchor="middle" x="607.89" y="-1015.7" font-family="Arial" font-size="14.00">接收失败</text>
</g>
<!-- json_process -->
<g id="node15" class="node">
<title>json_process</title>
<path fill="#ffebee" stroke="black" d="M870.62,-829.75C870.62,-829.75 771.38,-829.75 771.38,-829.75 765.38,-829.75 759.38,-823.75 759.38,-817.75 759.38,-817.75 759.38,-716.75 759.38,-716.75 759.38,-710.75 765.38,-704.75 771.38,-704.75 771.38,-704.75 870.62,-704.75 870.62,-704.75 876.62,-704.75 882.62,-710.75 882.62,-716.75 882.62,-716.75 882.62,-817.75 882.62,-817.75 882.62,-823.75 876.62,-829.75 870.62,-829.75"/>
<text text-anchor="middle" x="821" y="-812.45" font-family="Arial" font-size="14.00">JSON消息处理</text>
<text text-anchor="middle" x="821" y="-792.2" font-family="Arial" font-size="14.00">JSON Processing</text>
<text text-anchor="middle" x="821" y="-776.45" font-family="Arial" font-size="14.00">• TTS控制</text>
<text text-anchor="middle" x="821" y="-756.2" font-family="Arial" font-size="14.00">• STT结果</text>
<text text-anchor="middle" x="821" y="-735.95" font-family="Arial" font-size="14.00">• LLM响应</text>
<text text-anchor="middle" x="821" y="-715.7" font-family="Arial" font-size="14.00">• 系统命令</text>
</g>
<!-- json_process&#45;&gt;idle -->
<g id="edge18" class="edge">
<title>json_process&#45;&gt;idle</title>
<path fill="none" stroke="black" d="M758.89,-739.03C726.36,-724.32 686.11,-705.39 651,-686.75 624.36,-672.61 616.17,-667.55 586.93,-648.37"/>
<polygon fill="black" stroke="black" points="589.17,-645.65 578.89,-643.09 585.32,-651.5 589.17,-645.65"/>
<text text-anchor="middle" x="679.5" y="-673.45" font-family="Arial" font-size="14.00">系统命令</text>
</g>
<!-- json_process&#45;&gt;speaking -->
<g id="edge17" class="edge">
<title>json_process&#45;&gt;speaking</title>
<path fill="none" stroke="black" d="M846.52,-704.62C848.55,-698.64 850.42,-692.61 852,-686.75 862.5,-647.82 866,-637.44 866,-597.12 866,-597.12 866,-597.12 866,-232.62 866,-193.89 869.75,-150.63 873.62,-116.31"/>
<polygon fill="black" stroke="black" points="877.08,-116.88 874.76,-106.54 870.13,-116.07 877.08,-116.88"/>
<text text-anchor="middle" x="893" y="-411.7" font-family="Arial" font-size="14.00">TTS消息</text>
</g>
<!-- tts_msg -->
<g id="node22" class="node">
<title>tts_msg</title>
<path fill="#fff3e0" stroke="black" d="M1060,-648.5C1060,-648.5 906,-648.5 906,-648.5 900,-648.5 894,-642.5 894,-636.5 894,-636.5 894,-555.75 894,-555.75 894,-549.75 900,-543.75 906,-543.75 906,-543.75 1060,-543.75 1060,-543.75 1066,-543.75 1072,-549.75 1072,-555.75 1072,-555.75 1072,-636.5 1072,-636.5 1072,-642.5 1066,-648.5 1060,-648.5"/>
<text text-anchor="middle" x="983" y="-631.2" font-family="Arial" font-size="14.00">TTS消息</text>
<text text-anchor="middle" x="983" y="-610.95" font-family="Arial" font-size="14.00">TTS Message</text>
<text text-anchor="middle" x="983" y="-595.2" font-family="Arial" font-size="14.00">• start: 开始播放</text>
<text text-anchor="middle" x="983" y="-574.95" font-family="Arial" font-size="14.00">• stop: 播放结束</text>
<text text-anchor="middle" x="983" y="-554.7" font-family="Arial" font-size="14.00">• sentence_start: 句子开始</text>
</g>
<!-- json_process&#45;&gt;tts_msg -->
<g id="edge22" class="edge">
<title>json_process&#45;&gt;tts_msg</title>
<path fill="none" stroke="black" d="M879.94,-704.71C894.89,-689.11 910.92,-672.38 925.78,-656.86"/>
<polygon fill="black" stroke="black" points="927.99,-659.61 932.38,-649.97 922.94,-654.77 927.99,-659.61"/>
<text text-anchor="middle" x="943.51" y="-673.45" font-family="Arial" font-size="14.00">TTS类型</text>
</g>
<!-- stt_msg -->
<g id="node23" class="node">
<title>stt_msg</title>
<path fill="#fff3e0" stroke="black" d="M1188.25,-648.5C1188.25,-648.5 1101.75,-648.5 1101.75,-648.5 1095.75,-648.5 1089.75,-642.5 1089.75,-636.5 1089.75,-636.5 1089.75,-555.75 1089.75,-555.75 1089.75,-549.75 1095.75,-543.75 1101.75,-543.75 1101.75,-543.75 1188.25,-543.75 1188.25,-543.75 1194.25,-543.75 1200.25,-549.75 1200.25,-555.75 1200.25,-555.75 1200.25,-636.5 1200.25,-636.5 1200.25,-642.5 1194.25,-648.5 1188.25,-648.5"/>
<text text-anchor="middle" x="1145" y="-631.2" font-family="Arial" font-size="14.00">STT消息</text>
<text text-anchor="middle" x="1145" y="-610.95" font-family="Arial" font-size="14.00">STT Message</text>
<text text-anchor="middle" x="1145" y="-595.2" font-family="Arial" font-size="14.00">• 语音识别结果</text>
<text text-anchor="middle" x="1145" y="-574.95" font-family="Arial" font-size="14.00">• 用户输入显示</text>
<text text-anchor="middle" x="1145" y="-554.7" font-family="Arial" font-size="14.00">• 日志记录</text>
</g>
<!-- json_process&#45;&gt;stt_msg -->
<g id="edge23" class="edge">
<title>json_process&#45;&gt;stt_msg</title>
<path fill="none" stroke="black" d="M883.09,-743.26C934.76,-722.99 1009.72,-690.96 1079.58,-649.05"/>
<polygon fill="black" stroke="black" points="1081.38,-652.05 1088.1,-643.86 1077.74,-646.07 1081.38,-652.05"/>
<text text-anchor="middle" x="1074.45" y="-673.45" font-family="Arial" font-size="14.00">STT类型</text>
</g>
<!-- llm_msg -->
<g id="node24" class="node">
<title>llm_msg</title>
<path fill="#fff3e0" stroke="black" d="M686.12,-648.5C686.12,-648.5 607.88,-648.5 607.88,-648.5 601.88,-648.5 595.88,-642.5 595.88,-636.5 595.88,-636.5 595.88,-555.75 595.88,-555.75 595.88,-549.75 601.88,-543.75 607.88,-543.75 607.88,-543.75 686.12,-543.75 686.12,-543.75 692.12,-543.75 698.12,-549.75 698.12,-555.75 698.12,-555.75 698.12,-636.5 698.12,-636.5 698.12,-642.5 692.12,-648.5 686.12,-648.5"/>
<text text-anchor="middle" x="647" y="-631.2" font-family="Arial" font-size="14.00">LLM消息</text>
<text text-anchor="middle" x="647" y="-610.95" font-family="Arial" font-size="14.00">LLM Message</text>
<text text-anchor="middle" x="647" y="-595.2" font-family="Arial" font-size="14.00">• 情感状态</text>
<text text-anchor="middle" x="647" y="-574.95" font-family="Arial" font-size="14.00">• 表情设置</text>
<text text-anchor="middle" x="647" y="-554.7" font-family="Arial" font-size="14.00">• 交互反馈</text>
</g>
<!-- json_process&#45;&gt;llm_msg -->
<g id="edge24" class="edge">
<title>json_process&#45;&gt;llm_msg</title>
<path fill="none" stroke="black" d="M758.91,-713.18C749.25,-704.5 739.5,-695.49 730.5,-686.75 720.75,-677.28 710.66,-666.95 701.02,-656.79"/>
<polygon fill="black" stroke="black" points="703.83,-654.67 694.43,-649.79 698.73,-659.47 703.83,-654.67"/>
<text text-anchor="middle" x="758.25" y="-673.45" font-family="Arial" font-size="14.00">LLM类型</text>
</g>
<!-- system_msg -->
<g id="node25" class="node">
<title>system_msg</title>
<path fill="#fff3e0" stroke="black" d="M825.5,-648.5C825.5,-648.5 728.5,-648.5 728.5,-648.5 722.5,-648.5 716.5,-642.5 716.5,-636.5 716.5,-636.5 716.5,-555.75 716.5,-555.75 716.5,-549.75 722.5,-543.75 728.5,-543.75 728.5,-543.75 825.5,-543.75 825.5,-543.75 831.5,-543.75 837.5,-549.75 837.5,-555.75 837.5,-555.75 837.5,-636.5 837.5,-636.5 837.5,-642.5 831.5,-648.5 825.5,-648.5"/>
<text text-anchor="middle" x="777" y="-631.2" font-family="Arial" font-size="14.00">系统消息</text>
<text text-anchor="middle" x="777" y="-610.95" font-family="Arial" font-size="14.00">System Message</text>
<text text-anchor="middle" x="777" y="-595.2" font-family="Arial" font-size="14.00">• 重启命令</text>
<text text-anchor="middle" x="777" y="-574.95" font-family="Arial" font-size="14.00">• 状态控制</text>
<text text-anchor="middle" x="777" y="-554.7" font-family="Arial" font-size="14.00">• 设备管理</text>
</g>
<!-- json_process&#45;&gt;system_msg -->
<g id="edge25" class="edge">
<title>json_process&#45;&gt;system_msg</title>
<path fill="none" stroke="black" d="M799.99,-704.4C798.21,-698.46 796.51,-692.51 795,-686.75 792.7,-678.02 790.54,-668.75 788.56,-659.6"/>
<polygon fill="black" stroke="black" points="792.03,-659.1 786.56,-650.03 785.18,-660.54 792.03,-659.1"/>
<text text-anchor="middle" x="823.5" y="-673.45" font-family="Arial" font-size="14.00">系统类型</text>
</g>
<!-- wake_word -->
<g id="node16" class="node">
<title>wake_word</title>
<path fill="#fff3e0" stroke="black" d="M1464.62,-648.5C1464.62,-648.5 1341.38,-648.5 1341.38,-648.5 1335.38,-648.5 1329.38,-642.5 1329.38,-636.5 1329.38,-636.5 1329.38,-555.75 1329.38,-555.75 1329.38,-549.75 1335.38,-543.75 1341.38,-543.75 1341.38,-543.75 1464.62,-543.75 1464.62,-543.75 1470.62,-543.75 1476.62,-549.75 1476.62,-555.75 1476.62,-555.75 1476.62,-636.5 1476.62,-636.5 1476.62,-642.5 1470.62,-648.5 1464.62,-648.5"/>
<text text-anchor="middle" x="1403" y="-631.2" font-family="Arial" font-size="14.00">唤醒词检测</text>
<text text-anchor="middle" x="1403" y="-610.95" font-family="Arial" font-size="14.00">Wake Word Detection</text>
<text text-anchor="middle" x="1403" y="-595.2" font-family="Arial" font-size="14.00">• AFE/ESP引擎</text>
<text text-anchor="middle" x="1403" y="-574.95" font-family="Arial" font-size="14.00">• 关键词识别</text>
<text text-anchor="middle" x="1403" y="-554.7" font-family="Arial" font-size="14.00">• 音频缓冲</text>
</g>
<!-- wake_word&#45;&gt;connecting -->
<g id="edge14" class="edge">
<title>wake_word&#45;&gt;connecting</title>
<path fill="none" stroke="green" d="M1343.18,-543.52C1314.69,-521.83 1279.03,-498.59 1243,-485.25 1172.99,-459.33 1145.68,-494.03 1076,-467.25 1072.77,-466.01 1069.55,-464.58 1066.36,-463.01"/>
<polygon fill="green" stroke="green" points="1068.14,-459.99 1057.68,-458.29 1064.79,-466.14 1068.14,-459.99"/>
<text text-anchor="middle" x="1346.08" y="-502.32" font-family="Arial" font-size="14.00">唤醒检测</text>
</g>
<!-- button_press -->
<g id="node17" class="node">
<title>button_press</title>
<path fill="#fff3e0" stroke="black" d="M1299.62,-648.5C1299.62,-648.5 1230.38,-648.5 1230.38,-648.5 1224.38,-648.5 1218.38,-642.5 1218.38,-636.5 1218.38,-636.5 1218.38,-555.75 1218.38,-555.75 1218.38,-549.75 1224.38,-543.75 1230.38,-543.75 1230.38,-543.75 1299.62,-543.75 1299.62,-543.75 1305.62,-543.75 1311.62,-549.75 1311.62,-555.75 1311.62,-555.75 1311.62,-636.5 1311.62,-636.5 1311.62,-642.5 1305.62,-648.5 1299.62,-648.5"/>
<text text-anchor="middle" x="1265" y="-631.2" font-family="Arial" font-size="14.00">按键触发</text>
<text text-anchor="middle" x="1265" y="-610.95" font-family="Arial" font-size="14.00">Button Press</text>
<text text-anchor="middle" x="1265" y="-595.2" font-family="Arial" font-size="14.00">• 手动激活</text>
<text text-anchor="middle" x="1265" y="-574.95" font-family="Arial" font-size="14.00">• 状态切换</text>
<text text-anchor="middle" x="1265" y="-554.7" font-family="Arial" font-size="14.00">• 中断处理</text>
</g>
<!-- button_press&#45;&gt;connecting -->
<g id="edge15" class="edge">
<title>button_press&#45;&gt;connecting</title>
<path fill="none" stroke="blue" d="M1217.96,-550.65C1214.98,-548.25 1211.98,-545.93 1209,-543.75 1153.99,-503.46 1133.26,-504.29 1076,-467.25 1074.18,-466.07 1072.34,-464.87 1070.49,-463.64"/>
<polygon fill="blue" stroke="blue" points="1072.71,-460.91 1062.46,-458.21 1068.79,-466.71 1072.71,-460.91"/>
<text text-anchor="middle" x="1210.71" y="-502.32" font-family="Arial" font-size="14.00">手动触发</text>
</g>
<!-- vad_detect -->
<g id="node18" class="node">
<title>vad_detect</title>
<path fill="#fff3e0" stroke="black" d="M1176.88,-467.25C1176.88,-467.25 1097.12,-467.25 1097.12,-467.25 1091.12,-467.25 1085.12,-461.25 1085.12,-455.25 1085.12,-455.25 1085.12,-374.5 1085.12,-374.5 1085.12,-368.5 1091.12,-362.5 1097.12,-362.5 1097.12,-362.5 1176.88,-362.5 1176.88,-362.5 1182.88,-362.5 1188.88,-368.5 1188.88,-374.5 1188.88,-374.5 1188.88,-455.25 1188.88,-455.25 1188.88,-461.25 1182.88,-467.25 1176.88,-467.25"/>
<text text-anchor="middle" x="1137" y="-449.95" font-family="Arial" font-size="14.00">语音活动检测</text>
<text text-anchor="middle" x="1137" y="-429.7" font-family="Arial" font-size="14.00">VAD Detection</text>
<text text-anchor="middle" x="1137" y="-413.95" font-family="Arial" font-size="14.00">• 语音检测</text>
<text text-anchor="middle" x="1137" y="-393.7" font-family="Arial" font-size="14.00">• LED指示</text>
<text text-anchor="middle" x="1137" y="-373.45" font-family="Arial" font-size="14.00">• 状态更新</text>
</g>
<!-- vad_detect&#45;&gt;listening -->
<g id="edge16" class="edge">
<title>vad_detect&#45;&gt;listening</title>
<path fill="none" stroke="orange" d="M1123.76,-362.25C1117.16,-342.78 1107.8,-321.2 1095,-304 1087.7,-294.18 1078.65,-285.05 1069.14,-276.85"/>
<polygon fill="orange" stroke="orange" points="1071.42,-274.19 1061.47,-270.55 1066.97,-279.6 1071.42,-274.19"/>
<text text-anchor="middle" x="1145.12" y="-321.07" font-family="Arial" font-size="14.00">语音活动</text>
</g>
<!-- alert_msg -->
<g id="node27" class="node">
<title>alert_msg</title>
<path fill="#ffcdd2" stroke="black" d="M554.5,-819.62C554.5,-819.62 475.5,-819.62 475.5,-819.62 469.5,-819.62 463.5,-813.62 463.5,-807.62 463.5,-807.62 463.5,-726.88 463.5,-726.88 463.5,-720.88 469.5,-714.88 475.5,-714.88 475.5,-714.88 554.5,-714.88 554.5,-714.88 560.5,-714.88 566.5,-720.88 566.5,-726.88 566.5,-726.88 566.5,-807.62 566.5,-807.62 566.5,-813.62 560.5,-819.62 554.5,-819.62"/>
<text text-anchor="middle" x="515" y="-802.33" font-family="Arial" font-size="14.00">警报消息</text>
<text text-anchor="middle" x="515" y="-782.08" font-family="Arial" font-size="14.00">Alert Message</text>
<text text-anchor="middle" x="515" y="-766.33" font-family="Arial" font-size="14.00">• 错误提示</text>
<text text-anchor="middle" x="515" y="-746.08" font-family="Arial" font-size="14.00">• 状态通知</text>
<text text-anchor="middle" x="515" y="-725.83" font-family="Arial" font-size="14.00">• 用户反馈</text>
</g>
<!-- error_handle&#45;&gt;alert_msg -->
<g id="edge28" class="edge">
<title>error_handle&#45;&gt;alert_msg</title>
<path fill="none" stroke="black" d="M515,-885.71C515,-868.5 515,-849.13 515,-831.16"/>
<polygon fill="black" stroke="black" points="518.5,-831.4 515,-821.4 511.5,-831.4 518.5,-831.4"/>
<text text-anchor="middle" x="543.5" y="-854.7" font-family="Arial" font-size="14.00">错误通知</text>
</g>
<!-- alert_msg&#45;&gt;idle -->
<g id="edge29" class="edge">
<title>alert_msg&#45;&gt;idle</title>
<path fill="none" stroke="black" d="M515,-714.59C515,-697.37 515,-678 515,-660.03"/>
<polygon fill="black" stroke="black" points="518.5,-660.28 515,-650.28 511.5,-660.28 518.5,-660.28"/>
<text text-anchor="middle" x="543.5" y="-673.45" font-family="Arial" font-size="14.00">恢复待机</text>
</g>
<!-- aec_process&#45;&gt;opus_encode -->
<g id="edge31" class="edge">
<title>aec_process&#45;&gt;opus_encode</title>
<path fill="none" stroke="black" d="M562.21,-1368.75C552.81,-1353.96 542.48,-1337.69 532.76,-1322.39"/>
<polygon fill="black" stroke="black" points="535.93,-1320.85 527.61,-1314.29 530.02,-1324.61 535.93,-1320.85"/>
<text text-anchor="middle" x="579.05" y="-1337.7" font-family="Arial" font-size="14.00">处理完成</text>
</g>
</g>
</svg>
